<svg width="16" height="30" viewBox="0 0 16 30" fill="none" xmlns="http://www.w3.org/2000/svg">
<g clip-path="url(#clip0_17_43)">
<path d="M6.89489 26.6218H8.90625L8.9233 24.653C12.6136 24.3718 14.7528 22.4115 14.7614 19.4541C14.7528 16.5479 12.5625 15.0053 9.52841 14.3235L9.02557 14.2041L9.05966 9.94278C10.1932 10.207 10.8835 10.9314 10.9858 12.0053H14.5227C14.4801 9.18426 12.375 7.16437 9.09375 6.80642L9.1108 4.80358H7.09943L7.08239 6.78937C3.75 7.11324 1.39773 9.1246 1.41477 12.0308C1.40625 14.6047 3.22159 16.0791 6.17045 16.7865L6.98864 16.9911L6.94602 21.4996C5.55682 21.2354 4.61932 20.3831 4.52557 18.9598H0.954545C1.03977 22.403 3.2983 24.3291 6.91193 24.6445L6.89489 26.6218ZM8.95739 21.4996L8.99148 17.5195C10.3125 17.9371 11.0284 18.474 11.0369 19.4456C11.0284 20.4769 10.2443 21.2439 8.95739 21.4996ZM7.0142 13.6843C5.94886 13.3178 5.18182 12.7638 5.19886 11.7837C5.19886 10.8718 5.84659 10.1644 7.0483 9.91721L7.0142 13.6843Z" fill="white"/>
</g>
<defs>
<clipPath id="clip0_17_43">
<rect width="16" height="29" fill="white" transform="translate(0 0.439941)"/>
</clipPath>
</defs>
</svg>
